Coordinates
version=1
nRows=29
nColumns=24
inDegrees=yes

Units are S.I. units (second, meters, Newtons, ...)
Angles are in degrees.

endheader
time	pelvis_tilt	pelvis_list	pelvis_rotation	pelvis_tx	pelvis_ty	pelvis_tz	hip_flexion_r	hip_adduction_r	hip_rotation_r	knee_angle_r	ankle_angle_r	subtalar_angle_r	mtp_angle_r	hip_flexion_l	hip_adduction_l	hip_rotation_l	knee_angle_l	ankle_angle_l	subtalar_angle_l	mtp_angle_l	lumbar_extension	lumbar_bending	lumbar_rotation
      1.07883333	      0.78235503	      0.14273248	      1.88111763	      0.51750110	      1.02237279	      0.27656434	      5.89025742	      5.79783435	      2.68966510	    -13.00757230	      4.05950530	    -16.33329552	      5.36642183	     13.30985832	     -1.09155620	     -3.08820268	    -63.78897403	      4.83876327	    -10.40762485	      6.38802409	      0.07819599	      1.11671449	      3.05959454
      1.08300000	      0.78562645	      0.19496172	      1.52110932	      0.52215938	      1.02275832	      0.27719699	      5.46583680	      5.77169096	      2.93997685	    -12.73518248	      4.15219754	    -16.16754402	      5.47639605	     13.75820976	     -1.07093098	     -3.36698534	    -63.37273011	      4.99896720	    -10.35906730	      6.38090525	      0.05979016	      1.06115624	      3.32726569
      1.08716667	      0.82483328	      0.25221629	      1.16186416	      0.52679190	      1.02317674	      0.27783871	      5.00642944	      5.73604976	      3.17910049	    -12.46766017	      4.24227476	    -16.00175223	      5.55943434	     14.15682908	     -1.05342351	     -3.65220001	    -62.91765826	      5.13988460	    -10.33975261	      6.37400901	      0.00682902	      0.99444154	      3.52338515
      1.09133333	      0.83198523	      0.30779829	      0.81207611	      0.53140902	      1.02351680	      0.27845161	      4.58495450	      5.69654291	      3.42768139	    -12.20643829	      4.34570797	    -15.84160868	      5.64844499	     14.58532680	     -1.03181212	     -3.91564156	    -62.43833524	      5.27129076	    -10.31977901	      6.36464761	     -0.01533314	      0.93500617	      3.77580106
      1.09550000	      0.82656155	      0.34251732	      0.47364828	      0.53598231	      1.02380025	      0.27904826	      4.18165836	      5.67555786	      3.68038776	    -11.94601087	      4.41273415	    -15.67060015	      5.69989865	     15.03180906	     -1.03599326	     -4.16674545	    -61.95027166	      5.39628012	    -10.32548128	      6.35822958	     -0.04508941	      0.89582140	      3.91084718
      1.09966667	      0.82517689	      0.39842206	      0.13213873	      0.54055988	      1.02407464	      0.27964909	      3.77667386	      5.62806580	      3.93972616	    -11.69529655	      4.51461084	    -15.51674873	      5.75170101	     15.45665254	     -1.02027551	     -4.42224593	    -61.41782162	      5.49881326	    -10.32676284	      6.35007090	     -0.06658328	      0.82352582	      4.10058332
      1.10383333	      0.85655811	      0.44219423	     -0.20710980	      0.54514245	      1.02437042	      0.28023857	      3.34128925	      5.58821310	      4.17645864	    -11.45638679	      4.62813926	    -15.38368026	      5.82657465	     15.83257330	     -1.02729401	     -4.68643524	    -60.85252123	      5.58784570	    -10.33917051	      6.33542712	     -0.10336310	      0.78736366	      4.39866727
      1.10800000	      0.83361373	      0.46414647	     -0.50778814	      0.54968140	      1.02454344	      0.28077528	      2.95680321	      5.56798521	      4.41994802	    -11.19379913	      4.70676776	    -15.22430163	      5.86691015	     16.28245452	     -1.04624250	     -4.89399336	    -60.29610038	      5.67692026	    -10.35609634	      6.32661985	     -0.11414116	      0.74504624	      4.51920193
      1.11216667	      0.86820718	      0.50811169	     -0.83674463	      0.55422884	      1.02479656	      0.28133078	      2.52022870	      5.51862028	      4.66889440	    -10.95549151	      4.81022735	    -15.10168720	      5.98628902	     16.63824695	     -1.04736982	     -5.13069733	    -59.67689436	      5.74513878	    -10.37495610	      6.29456481	     -0.17173559	      0.70863603	      4.89965002
      1.11633333	      0.86194127	      0.54104367	     -1.14842157	      0.55876106	      1.02495006	      0.28187085	      2.13313872	      5.47874021	      4.91268695	    -10.72806836	      4.93262462	    -14.97375686	      6.07470077	     17.04091294	     -1.06536558	     -5.35640773	    -59.05024155	      5.79352426	    -10.38997996	      6.26750406	     -0.18216487	      0.66020419	      5.06993713
      1.12050000	      0.85226044	      0.56027735	     -1.45499011	      0.56327649	      1.02506406	      0.28239012	      1.75184145	      5.44945658	      5.15726494	    -10.50214356	      5.02876263	    -14.84226579	      6.15750964	     17.44157463	     -1.09788267	     -5.57009382	    -58.40802904	      5.84461119	    -10.40331823	      6.23802540	     -0.19254932	      0.63582701	      5.25016304
      1.12466667	      0.86036013	      0.58888548	     -1.75505672	      0.56778397	      1.02520054	      0.28288887	      1.35312824	      5.40388981	      5.39149364	    -10.27827246	      5.12745851	    -14.70306525	      6.22936430	     17.80956930	     -1.11703133	     -5.77314402	    -57.72863787	      5.87416888	    -10.41995419	      6.20882712	     -0.22511409	      0.59829285	      5.40977539
      1.12883333	      0.84763341	      0.61162407	     -2.05176474	      0.57227914	      1.02526618	      0.28338200	      0.98396587	      5.36261592	      5.62667781	    -10.06785234	      5.23030956	    -14.56526511	      6.29735926	     18.19434520	     -1.14410074	     -5.96845904	    -57.03401806	      5.90029196	    -10.42570996	      6.17752659	     -0.23465014	      0.56895289	      5.57706818
      1.13300000	      0.82347127	      0.61749708	     -2.34331957	      0.57676435	      1.02528784	      0.28384164	      0.63173444	      5.33518291	      5.85790580	     -9.86623193	      5.30876744	    -14.42213655	      6.33092397	     18.58590948	     -1.18940759	     -6.15363643	    -56.32662267	      5.92276893	    -10.41980609	      6.16047650	     -0.23104937	      0.56403090	      5.65345495
      1.13716667	      0.83363572	      0.64049860	     -2.62386030	      0.58124825	      1.02534981	      0.28429115	      0.23759744	      5.28415018	      6.08306092	     -9.65485151	      5.43376521	    -14.29223082	      6.38991704	     18.92415936	     -1.20896237	     -6.32066637	    -55.57857606	      5.92504349	    -10.41924852	      6.12575955	     -0.27151074	      0.52796230	      5.87993472
      1.14133333	      0.80429505	      0.64936023	     -2.90548867	      0.58571639	      1.02531680	      0.28472694	     -0.10030932	      5.24682021	      6.30594157	     -9.46813536	      5.51827593	    -14.15083753	      6.41725047	     19.30210285	     -1.24989307	     -6.48645698	    -54.82388041	      5.92883061	    -10.39508990	      6.10864826	     -0.26302982	      0.51678650	      5.94475217
      1.14550000	      0.79397102	      0.66421898	     -3.18380604	      0.59018435	      1.02529950	      0.28515111	     -0.45859927	      5.19856685	      6.52604575	     -9.28201885	      5.62765880	    -14.01528739	      6.44543769	     19.64466613	     -1.28071624	     -6.64420824	    -54.03680451	      5.91866569	    -10.36880676	      6.08899486	     -0.27830690	      0.49301998	      6.06591332
      1.14966667	      0.77415058	      0.66972945	     -3.44617451	      0.59464869	      1.02522260	      0.28554149	     -0.80671705	      5.15738213	      6.72949364	     -9.09672219	      5.76547438	    -13.87686330	      6.49020135	     19.99452398	     -1.31593776	     -6.77466375	    -53.24280132	      5.90831630	    -10.33902336	      6.05368500	     -0.28455717	      0.48165581	      6.28685676
      1.15383333	      0.75215765	      0.68441082	     -3.71717634	      0.59909376	      1.02513928	      0.28592888	     -1.13813080	      5.10281942	      6.93308922	     -8.93436700	      5.86832498	    -13.73262702	      6.51584064	     20.33165900	     -1.34345821	     -6.91205834	    -52.41516394	      5.88494444	    -10.29406782	      6.03238782	     -0.28900700	      0.46119384	      6.36140546
      1.15800000	      0.72886657	      0.69135752	     -3.98023911	      0.60353648	      1.02502247	      0.28631242	     -1.46780353	      5.05516422	      7.13205537	     -8.77301507	      5.98886991	    -13.58839730	      6.53905789	     20.66259552	     -1.37871186	     -7.03368269	    -51.57399226	      5.85724624	    -10.23826823	      6.01272104	     -0.29130535	      0.44642940	      6.46225458
      1.16216667	      0.70978244	      0.68593264	     -4.23523068	      0.60796487	      1.02486792	      0.28667323	     -1.79839849	      5.01791927	      7.32081281	     -8.61842828	      6.11779126	    -13.44563642	      6.56075833	     20.98370602	     -1.42559719	     -7.14272336	    -50.72499599	      5.83332489	    -10.16667852	      5.99404551	     -0.30255021	      0.44603869	      6.57133742
      1.16633333	      0.69292192	      0.69251775	     -4.49266823	      0.61239862	      1.02472461	      0.28701975	     -2.12527333	      4.96320228	      7.50369670	     -8.47283470	      6.25285356	    -13.30047141	      6.58230478	     21.28531456	     -1.45638794	     -7.24749123	    -49.84097079	      5.79253962	    -10.09083080	      5.97537412	     -0.31766759	      0.43146175	      6.68688201
      1.17050000	      0.65631263	      0.69321883	     -4.74226087	      0.61683688	      1.02451025	      0.28735152	     -2.42728751	      4.91478199	      7.67783087	     -8.33464416	      6.39436219	    -13.15510978	      6.60196670	     21.60251423	     -1.49435745	     -7.34103978	    -48.94922626	      5.75130876	    -10.00197481	      5.95941133	     -0.31071884	      0.42531835	      6.78844931
      1.17466667	      0.63092636	      0.69206365	     -4.98918911	      0.62125818	      1.02428938	      0.28767430	     -2.73355009	      4.86567150	      7.84177061	     -8.20956298	      6.54581577	    -13.00602565	      6.62174285	     21.89688471	     -1.53241544	     -7.42543761	    -48.03686944	      5.70434585	     -9.90076952	      5.94478037	     -0.31545247	      0.41810364	      6.89282678
      1.17883333	      0.59429162	      0.69216279	     -5.22316654	      0.62569341	      1.02402973	      0.28797412	     -3.03511387	      4.81335076	      7.99758521	     -8.06751972	      6.69812795	    -12.85978015	      6.63871901	     22.19684287	     -1.56856120	     -7.50132734	    -47.11294455	      5.65291649	     -9.78886761	      5.93433223	     -0.31895014	      0.41714269	      6.97335144
      1.18300000	      0.56685294	      0.68709661	     -5.47062422	      0.63011444	      1.02375992	      0.28828716	     -3.32220820	      4.76555533	      8.14602427	     -7.97745295	      6.86305173	    -12.70597090	      6.65895895	     22.46926056	     -1.61243766	     -7.57799392	    -46.16258366	      5.59442765	     -9.65817724	      5.92408089	     -0.31730960	      0.41079224	      7.07991908
      1.18716667	      0.55254373	      0.67692002	     -5.69959521	      0.63454115	      1.02348177	      0.28855428	     -3.63014445	      4.71690703	      8.26205710	     -7.87210780	      7.06504245	    -12.50163148	      6.69664020	     22.72237479	     -1.65407493	     -7.63680223	    -45.20348003	      5.54354786	     -9.51958241	      5.91081148	     -0.34599473	      0.42039655	      7.25275897
      1.19133333	      0.49968245	      0.66917714	     -5.92179438	      0.63898678	      1.02312633	      0.28882405	     -3.90333264	      4.67120533	      8.40534129	     -7.75255976	      7.20863450	    -12.38222370	      6.71230086	     23.00802196	     -1.69936985	     -7.69283007	    -44.23067837	      5.47713413	     -9.35867770	      5.90737975	     -0.32526738	      0.42501894	      7.27522628
      1.19550000	      0.49974651	      0.66778410	     -6.15731879	      0.64341694	      1.02284283	      0.28909792	     -4.21004554	      4.60943887	      8.51548655	     -7.68085800	      7.41780339	    -12.18345890	      6.75221367	     23.21275023	     -1.73459145	     -7.75634504	    -43.21667727	      5.41109315	     -9.17875012	      5.90690644	     -0.36404725	      0.41434297	      7.41887745
